<svg height="160pt" preserveAspectRatio="xMidYMid meet" viewBox="0 0 160 160" width="160pt" xmlns="http://www.w3.org/2000/svg"><path d="m640 1325c-8-9-12-44-11-91 1-62-1-74-12-66-20 17-275 9-310-9-49-26-154-138-186-199-64-120-94-299-79-470 5-47 3-56-17-71-18-15-21-26-19-74 1-31 5-67 8-81 7-26 60-59 82-50 9 4 21-9 35-40 77-164 315-163 384 2 8 20 21 34 32 35 52 3 510 4 523 1 8-2 24-21 35-44 74-153 291-155 375-3 21 37 34 50 52 51 42 2 45 4 55 26 15 37 9 155-10 176-10 10-14 21-11 25 4 3 6 200 6 437 0 324-3 434-12 445-19 22-901 22-920 0z" transform="matrix(.1 0 0 -.1 0 160)"/></svg>